<svg xmlns="http://www.w3.org/2000/svg" width="240" height="240"><path d="M0 0h240v240H0V0z" fill-rule="evenodd" fill="url(#a)"/><defs><radialGradient id="a" gradientUnits="userSpaceOnUse" cx="120" cy="120" r="429.65" fx="120" fy="120"><stop offset="0" stop-color="#fff"/><stop offset="1" stop-color="#efefef"/></radialGradient></defs><g><path d="M146.326 35.26c-36.266.497-63.85 1.253-82.75 2.78-.51 2.04-.512 4.85-.513 8.168 0 2.298.254 4.85 1.02 7.404 24.006.01 50.312-.237 78.917-.993 16.345.515 31.67 1.286 46.482 2.057l-.046 131.227c-44.44.24-90.155.224-137.15.207-1.517-38.806-2.78-78.634-4.3-118.972-2.297-.51-5.362-1.023-9.193-1.025-3.32 0-6.13.51-8.684 1.02.493 49.528 2.01 94.207 4.55 134.545 16.6 1.028 46.48 1.55 89.9 1.564 33.967.012 61.295-1 81.983-2.525 2.048-15.828 3.334-40.592 3.346-74.803.008-25.785-.748-54.89-1.758-87.314-18.9-2.05-39.586-3.333-61.806-3.34z" fill-rule="evenodd"/></g><g><path d="M108.747 138.134c11.746 7.663 71.675 37.62 86.486 43.753 4.088-4.594 6.9-8.934 8.944-13.528-12.768-7.665-72.44-38.388-85.72-45.54 7.667-11.487 44.972-65.083 51.87-76.824-4.084-3.576-8.935-6.386-14.553-8.686-9.2 13.273-48.037 68.144-56.214 80.396-11.244 17.357-51.446 76.566-55.535 83.458 4.485 7.16 16.046 14.442 19.665 3.07 1.788-2.297 3.833-5.36 6.132-8.933 2.045-2.807 36.625-53.338 38.925-57.166z" fill-rule="evenodd" fill="#7e1710"/></g></svg>